<?xml version="1.0" encoding="UTF-8" standalone="no"?>
<!DOCTYPE svg PUBLIC "-//W3C//DTD SVG 1.1//EN" "http://www.w3.org/Graphics/SVG/1.1/DTD/svg11.dtd">
<svg height="100%" stroke-miterlimit="10" style="fill-rule:nonzero;clip-rule:evenodd;stroke-linecap:round;stroke-linejoin:round;" version="1.1" viewBox="0 0 2048 2048" width="100%" xml:space="preserve" xmlns="http://www.w3.org/2000/svg" xmlns:xlink="http://www.w3.org/1999/xlink">
<defs/>
<g id="Untitled">
<path d="M1014.62 357C990.034 357.415 965.13 359.094 939.875 362.031C862.63 371.016 789.38 394.296 720.188 429.469C636.721 471.898 565.354 529.683 506.438 602.625C453.503 668.161 413.878 740.9 388.344 821.219C360.093 910.086 350.922 1000.93 360.531 1094.25C366.698 1152.03 379.699 1207.63 400.438 1261.28C451.181 1392.56 534.579 1498.22 651.156 1577.12C739.633 1637.03 837.222 1673.14 943.375 1686.12C1002.44 1693.36 1061.38 1692.7 1120.19 1684.16C1204 1671.98 1282.78 1644.91 1356.12 1602.53C1469.28 1537.14 1556.23 1446.41 1616.53 1330.5C1660.15 1246.65 1684.46 1157.32 1689.97 1062.91C1695.59 966.498 1681.17 873.158 1646.25 783.188C1600.67 665.757 1528.01 568.064 1427.28 492.531C1309.71 404.37 1179.97 359.516 1039.12 357C1031 356.855 1022.82 356.862 1014.62 357ZM1006.44 370.031C1163.88 367.651 1304.56 413.967 1428.53 510.219C1470.62 542.898 1507.72 580.694 1540.38 622.812C1541.61 624.389 1543.38 625.684 1543.5 628.031C1541.55 629.506 1539.35 628.843 1537.38 628.844C1398.22 628.89 1259.11 628.903 1119.97 628.906C1030.53 628.907 941.095 628.826 851.656 629.031C845.563 629.045 844.136 627.564 844.156 621.469C844.403 548.222 844.391 474.966 844.188 401.719C844.171 396.429 845.834 394.551 850.75 393.219C901.551 379.444 953.249 371.885 1006.44 370.031ZM835 398.562C836.386 399.001 836.374 400.98 836.375 405.531C836.377 553.699 836.345 701.864 836.5 850.031C836.506 855.65 835.28 857.271 829.406 857.25C755.533 856.995 681.655 857.018 607.781 857.125C603.657 857.131 601.539 855.913 599.469 852.312C562.385 787.799 525.143 723.342 487.812 658.969C485.626 655.2 485.27 652.527 488.094 648.906C497.148 637.295 505.857 625.417 514.969 613.281C558.441 560.376 608.108 514.903 665.062 477.656C716.005 444.342 770.273 417.852 828.562 399.875C830.516 399.273 831.995 398.807 833.094 398.594C833.918 398.433 834.538 398.416 835 398.562ZM1123.88 636.844C1125.05 636.903 1126.37 637.219 1127.47 637.219C1265.75 637.159 1404.03 637.211 1542.31 637C1548.96 636.99 1552.95 638.977 1556.78 644.406C1616.05 728.584 1654 821.436 1670.19 923.062C1678.3 973.968 1679.99 1025.19 1675.78 1076.59C1675.65 1078.14 1676.47 1080.44 1674.44 1081C1672.64 1081.5 1671.66 1079.44 1670.5 1078.28C1645.25 1053.06 1620.02 1027.82 1594.78 1002.59C1550.11 957.935 1505.14 913.538 1461 868.344C1452.67 859.807 1444.57 856.877 1433.09 856.969C1374.79 857.436 1316.46 856.92 1258.16 857.375C1249.22 857.445 1243.41 855.485 1240.28 846.5C1201.16 778.775 1162.26 711.431 1123.41 644.094C1122.3 642.169 1119.96 640.005 1121.06 638.031C1121.65 636.978 1122.68 636.785 1123.88 636.844ZM967.906 636.938C974.776 636.857 978.062 639.519 981.094 644.875C992.579 665.156 1004.35 685.309 1016 705.5C1044.43 754.799 1072.86 804.072 1101.28 853.375C1101.78 854.246 1102.24 855.165 1103.31 857.125C1054.21 857.125 1005.96 857.125 957.062 857.125C921.07 857.127 885.735 857.02 850.375 857.25C849.127 857.258 848.125 857.17 847.312 856.969C844.876 856.364 844.211 854.677 844.219 851C844.38 781.967 844.368 712.939 844.156 643.906C844.139 638.342 845.551 636.993 851.094 637.031C870.562 637.162 890.031 637.25 909.5 637.25C928.969 637.25 948.439 637.162 967.906 636.938ZM1102.72 637C1108.32 636.955 1111.28 638.696 1114.03 643.5C1142.45 693.074 1171.12 742.518 1199.97 792.375C1212.34 813.831 1224.45 834.89 1236.53 855.906C1235.69 856.856 1234.82 857.136 1233.97 857.188C1233.12 857.239 1232.29 857.062 1231.53 857.062C1193.87 857.109 1156.22 857.014 1118.56 857.219C1114.32 857.242 1112.25 855.718 1110.28 852.281C1071.57 784.954 1032.77 717.686 993.969 650.406C991.604 646.306 989.219 642.23 986.281 637.156C989.72 637.156 991.96 637.156 994.188 637.156C1030.37 637.157 1066.54 637.287 1102.72 637ZM480 661.531C486.893 673.441 493.416 684.67 499.906 695.906C530.293 748.515 560.641 801.134 591.125 853.688C593.524 857.824 594.724 861.86 594.719 866.688C594.616 962.674 594.651 1058.68 594.656 1154.66C594.657 1155.86 594.656 1157.03 594.656 1160C587.984 1153.19 582.506 1147.51 576.938 1141.94C511.765 1076.75 446.642 1011.53 381.281 946.531C376.704 941.979 375.393 937.759 376.312 931.656C386.254 865.677 404.972 802.374 433.844 742.156C440.942 727.352 448.452 712.756 456.938 698.156C464.201 685.617 471.264 673.516 480 661.531ZM1436.62 866.375C1442.69 866.369 1443.82 868.284 1443.81 873.844C1443.67 969.625 1443.65 1065.41 1443.88 1161.19C1443.9 1167.3 1441.94 1168.38 1436.41 1168.38C1290.74 1168.22 1145.05 1168.24 998.75 1168.22C869.077 1168.25 740.041 1168.23 611 1168.38C605.996 1168.39 603.612 1167.91 603.625 1161.78C603.821 1066.42 603.733 971.047 603.719 875.688C603.718 866.897 603.727 866.879 612.5 866.875C887.208 866.752 1161.91 866.652 1436.62 866.375ZM1453.53 871.812C1474.42 892.86 1494.72 913.318 1515.38 934.062C1537.52 956.166 1559.37 977.98 1581.16 999.812C1611.24 1029.96 1641.3 1060.13 1671.38 1090.28C1673.02 1091.94 1674.38 1093.46 1674.06 1096.25C1664.8 1176.07 1642.08 1251.8 1605.28 1323.28C1605.11 1323.61 1604.79 1323.85 1603.81 1324.91C1590.65 1311.49 1577.63 1298.07 1564.44 1284.84C1529.58 1249.86 1494.7 1214.89 1459.66 1180.09C1454.62 1175.08 1452.14 1170.04 1452.16 1162.56C1452.47 1068.68 1452.39 974.788 1452.44 880.906C1452.44 878.298 1451.94 875.589 1453.53 871.812ZM846.188 893.031C841.759 893.014 837.321 893.05 832.875 893.188C788.368 894.556 745.136 902.474 703.625 919.188C695.818 922.331 692.59 927.555 691.688 935.188C690.044 949.051 693.483 961.624 702.156 972.406C705.46 976.513 706.617 980.609 706.781 985.562C707.842 1017.66 717.1 1047.31 734.562 1074.16C774.514 1135.58 835.955 1155.6 905 1134.97C960.77 1118.3 1000.63 1062.83 1002.38 1004.25C1002.89 986.707 1009.44 971.934 1025.19 962.375C1030.05 959.421 1034.5 959.637 1039.38 962.469C1050.22 968.782 1056.39 978.413 1060.06 990.594C1061.38 995.8 1062.08 1000.56 1062.12 1005.44C1062.28 1022.93 1065.64 1039.88 1073.31 1055.53C1100.53 1111 1143.88 1141.27 1207.09 1142.22C1251.35 1142.89 1286.86 1125.99 1315.38 1093.38C1342.08 1062.83 1355.58 1026.72 1357.66 986.281C1357.93 980.96 1358.96 976.431 1362.59 971.906C1370.77 961.701 1374.16 949.626 1372.91 936.438C1372.13 928.105 1368.83 922.363 1360.22 918.969C1311.32 899.678 1260.54 891.651 1208.22 893.281C1180.15 894.155 1152.53 898.276 1126.03 908.312C1109.36 914.628 1094.99 925.094 1079.56 933.656C1076.48 935.366 1074.21 935.309 1070.88 934.156C1045.37 925.362 1019.69 925.397 994.156 933.938C990.427 935.184 987.857 935.365 984.312 933.375C968.746 924.636 954.206 914 937.219 907.875C907.677 897.223 877.179 893.153 846.188 893.031ZM1210.56 909.75C1236.75 910.133 1262.83 917.441 1288.41 931.656C1331.36 955.532 1344.37 1000.18 1324.38 1045.16C1296.8 1107.14 1228.75 1137.57 1164.28 1116.62C1159.1 1114.94 1154.17 1112.46 1148.72 1110.12C1106.02 1086.3 1083.81 1050.31 1084.66 1001.84C1085.24 968.583 1103.29 944.279 1132 929.406C1158.08 915.9 1184.37 909.367 1210.56 909.75ZM858.75 910C879.572 910.353 900.52 914.964 921.438 923.906C973.2 946.035 992.692 992.627 972.719 1045.5C956.349 1088.83 924.13 1114.02 878.5 1122C877.056 1122.25 875.57 1122.22 873.531 1122.38C822.298 1129.32 769.214 1100.99 744.125 1053.44C733.125 1032.59 727.815 1010.61 733.031 987.062C738.958 960.297 755.74 941.597 779.375 929.469C805.411 916.109 831.979 909.546 858.75 910ZM373.75 953.031C376.982 953.151 378.063 955.504 379.562 957C449.992 1027.35 520.365 1097.75 590.75 1168.12C595.11 1179.13 604.568 1177.45 613.5 1177.44C642.76 1177.39 672.014 1177.48 701.906 1177.5C801.266 1177.51 899.991 1177.54 998.719 1177.44C1003.47 1177.43 1006.96 1178.71 1010.38 1182.12C1035.97 1208 1061.76 1233.71 1087.5 1259.47C1088.64 1260.6 1089.72 1261.77 1091.78 1263.94C1087 1263.94 1083.54 1263.94 1080.06 1263.94C861.363 1263.94 642.643 1263.9 423.938 1264.09C417.581 1264.09 414.777 1262.15 412.594 1256.34C379.386 1167.99 365.566 1076.74 371.25 982.531C371.842 972.725 372.888 962.942 373.75 953.031ZM1438.88 1177.34C1443.98 1177.33 1447.69 1178.93 1451.09 1182.38C1459.23 1190.58 1467.44 1198.73 1475.94 1207.19C1516.11 1247.32 1555.93 1287.21 1595.91 1326.91C1599.65 1330.63 1600.26 1333.33 1597.59 1338.12C1549.37 1425.12 1485.12 1497.8 1404.31 1555.84C1400.63 1558.49 1398.73 1558.37 1395.53 1555.16C1299.34 1458.76 1203.03 1362.46 1106.75 1266.16C1079.07 1238.47 1051.37 1210.83 1023.62 1183.19C1022.16 1181.73 1020.36 1180.62 1018.69 1179.34C1019.79 1178.02 1020.85 1177.58 1021.84 1177.47C1022.84 1177.36 1023.78 1177.59 1024.62 1177.59C1162.7 1177.51 1300.78 1177.51 1438.88 1177.34ZM1091.91 1271.59C1093.06 1271.56 1094.11 1271.82 1094.72 1273.03C1095.71 1275 1093.38 1276.79 1092.38 1278.56C1056.06 1341.5 1019.76 1404.42 983.438 1467.38C947.642 1529.41 911.807 1591.4 876.188 1653.53C873.281 1658.59 870.55 1659.75 864.812 1658.28C796.392 1640.76 732.335 1613.28 672.312 1575.19C558.605 1501.68 475.329 1403.02 421.906 1279.12C418.813 1271.94 418.872 1271.91 426.719 1271.91C647.289 1271.91 867.866 1271.91 1088.44 1271.97C1089.5 1271.97 1090.75 1271.63 1091.91 1271.59ZM1103.91 1275.56C1122.66 1294.41 1140.97 1312.8 1159.59 1331.53C1235.65 1407.58 1311.36 1483.35 1387.22 1558.97C1391.44 1563.18 1391.55 1564.91 1386.38 1568.31C1293.68 1629.27 1192.28 1665.09 1081.78 1675.19C1016.31 1681.18 951.482 1676.86 887.188 1663.41C881.39 1662.2 881.277 1660.74 884.031 1656C918.801 1596.07 953.383 1536.02 988.031 1476.03C1024.36 1413.12 1060.71 1350.24 1097.06 1287.34C1099.15 1283.73 1101.25 1280.12 1103.91 1275.56Z" fill="#b38df0" fill-rule="nonzero" opacity="1" stroke="#b08bec" stroke-linecap="butt" stroke-linejoin="round" stroke-width="5.27937"/>
</g>
</svg>