<?xml version="1.0" encoding="UTF-8" standalone="no"?>
<!DOCTYPE svg PUBLIC "-//W3C//DTD SVG 1.1//EN" "http://www.w3.org/Graphics/SVG/1.1/DTD/svg11.dtd">
<!-- Created with Vectornator (http://vectornator.io/) -->
<svg height="100%" stroke-miterlimit="10" style="fill-rule:nonzero;clip-rule:evenodd;stroke-linecap:round;stroke-linejoin:round;" version="1.1" viewBox="0 0 2048 2048" width="100%" xml:space="preserve" xmlns="http://www.w3.org/2000/svg" xmlns:xlink="http://www.w3.org/1999/xlink">
<defs/>
<clipPath id="ArtboardFrame">
<rect height="2048" width="2048" x="0" y="0"/>
</clipPath>
<g clip-path="url(#ArtboardFrame)" id="Untitled">
<path d="M8.22619-2.3227C8.22619-4.39855 9.909-6.08136 11.9848-6.08136L2052.47-6.08136C2054.54-6.08136 2056.23-4.39855 2056.23-2.3227L2056.23 2038.16C2056.23 2040.24 2054.54 2041.92 2052.47 2041.92L11.9848 2041.92C9.909 2041.92 8.22619 2040.24 8.22619 2038.16L8.22619-2.3227Z" fill="#ffe3f9" fill-rule="nonzero" opacity="0" stroke="#70b983" stroke-linecap="butt" stroke-linejoin="round" stroke-width="1.77712"/>
<g opacity="0">
<path d="M1039.12 357C1006.62 356.419 973.549 358.114 939.875 362.031C862.63 371.016 789.381 394.296 720.188 429.469C636.722 471.898 565.354 529.683 506.438 602.625C453.504 668.161 413.878 740.9 388.344 821.219C360.093 910.086 350.922 1000.93 360.531 1094.25C366.698 1152.03 379.7 1207.63 400.438 1261.28C451.182 1392.56 534.579 1498.21 651.156 1577.12C739.633 1637.02 837.222 1673.13 943.375 1686.12C1002.44 1693.36 1061.38 1692.7 1120.19 1684.16C1204 1671.98 1282.78 1644.91 1356.12 1602.53C1469.27 1537.14 1556.23 1446.41 1616.53 1330.5C1660.15 1246.65 1684.46 1157.32 1689.97 1062.91C1695.59 966.502 1681.17 873.158 1646.25 783.188C1600.67 665.758 1528.01 568.064 1427.28 492.531C1309.71 404.37 1179.97 359.516 1039.12 357ZM1006.44 370.031C1163.88 367.651 1304.56 413.967 1428.53 510.219C1470.62 542.898 1507.73 580.694 1540.38 622.812C1541.61 624.388 1543.38 625.684 1543.5 628.031C1541.55 629.506 1539.36 628.843 1537.38 628.844C1398.23 628.89 1259.11 628.903 1119.97 628.906C1030.53 628.907 941.095 628.826 851.656 629.031C845.563 629.045 844.136 627.564 844.156 621.469C844.403 548.222 844.392 474.966 844.188 401.719C844.172 396.429 845.834 394.551 850.75 393.219C901.551 379.444 953.252 371.885 1006.44 370.031ZM833.094 398.594C836.39 397.953 836.374 399.462 836.375 405.531C836.377 553.699 836.345 701.864 836.5 850.031C836.506 855.65 835.28 857.271 829.406 857.25C755.533 856.995 681.655 857.018 607.781 857.125C603.657 857.131 601.539 855.913 599.469 852.312C562.385 787.798 525.143 723.342 487.812 658.969C485.626 655.2 485.27 652.527 488.094 648.906C497.148 637.295 505.857 625.417 514.969 613.281C558.441 560.376 608.107 514.903 665.062 477.656C716.005 444.342 770.273 417.852 828.562 399.875C830.515 399.273 831.995 398.807 833.094 398.594ZM1123.88 636.844C1125.06 636.903 1126.37 637.219 1127.47 637.219C1265.75 637.159 1404.03 637.211 1542.31 637C1548.96 636.99 1552.95 638.977 1556.78 644.406C1616.05 728.584 1654 821.435 1670.19 923.062C1678.3 973.967 1679.99 1025.19 1675.78 1076.59C1675.65 1078.14 1676.47 1080.44 1674.44 1081C1672.64 1081.5 1671.66 1079.44 1670.5 1078.28C1645.25 1053.06 1620.02 1027.82 1594.78 1002.59C1550.11 957.931 1505.14 913.538 1461 868.344C1452.67 859.807 1444.57 856.877 1433.09 856.969C1374.79 857.436 1316.46 856.92 1258.16 857.375C1249.22 857.445 1243.41 855.485 1240.28 846.5C1201.16 778.775 1162.26 711.431 1123.41 644.094C1122.3 642.169 1119.96 640.005 1121.06 638.031C1121.65 636.978 1122.69 636.785 1123.88 636.844ZM967.906 636.938C974.776 636.858 978.062 639.519 981.094 644.875C992.579 665.156 1004.35 685.309 1016 705.5C1044.43 754.799 1072.86 804.072 1101.28 853.375C1101.78 854.246 1102.24 855.165 1103.31 857.125C1054.21 857.125 1005.96 857.125 957.062 857.125C921.07 857.127 885.735 857.02 850.375 857.25C845.382 857.283 844.208 855.902 844.219 851C844.38 781.967 844.368 712.939 844.156 643.906C844.139 638.342 845.551 636.993 851.094 637.031C890.031 637.293 928.972 637.387 967.906 636.938ZM1102.72 637C1108.32 636.955 1111.28 638.696 1114.03 643.5C1142.45 693.074 1171.12 742.518 1199.97 792.375C1212.34 813.831 1224.45 834.89 1236.53 855.906C1234.84 857.805 1233.05 857.061 1231.53 857.062C1193.87 857.108 1156.22 857.014 1118.56 857.219C1114.32 857.242 1112.25 855.718 1110.28 852.281C1071.57 784.954 1032.77 717.686 993.969 650.406C991.604 646.306 989.219 642.23 986.281 637.156C989.72 637.156 991.96 637.156 994.188 637.156C1030.37 637.157 1066.54 637.287 1102.72 637ZM480 661.531C486.893 673.441 493.416 684.67 499.906 695.906C530.293 748.515 560.641 801.134 591.125 853.688C593.524 857.824 594.724 861.861 594.719 866.688C594.616 962.674 594.651 1058.68 594.656 1154.66C594.657 1155.86 594.656 1157.03 594.656 1160C587.984 1153.19 582.506 1147.51 576.938 1141.94C511.766 1076.75 446.642 1011.53 381.281 946.531C376.704 941.979 375.393 937.759 376.312 931.656C386.253 865.677 404.972 802.374 433.844 742.156C440.942 727.352 448.452 712.756 456.938 698.156C464.201 685.617 471.264 673.516 480 661.531ZM1436.62 866.375C1442.69 866.369 1443.82 868.284 1443.81 873.844C1443.67 969.625 1443.65 1065.41 1443.88 1161.19C1443.9 1167.3 1441.94 1168.39 1436.41 1168.38C1290.74 1168.22 1145.05 1168.24 998.75 1168.22C869.077 1168.25 740.041 1168.24 611 1168.38C605.996 1168.39 603.612 1167.91 603.625 1161.78C603.821 1066.42 603.733 971.047 603.719 875.688C603.718 866.898 603.727 866.879 612.5 866.875C887.208 866.752 1161.91 866.652 1436.62 866.375ZM1453.53 871.812C1474.42 892.86 1494.73 913.318 1515.38 934.062C1537.52 956.166 1559.37 977.979 1581.16 999.812C1611.24 1029.96 1641.31 1060.13 1671.38 1090.28C1673.02 1091.94 1674.38 1093.46 1674.06 1096.25C1664.8 1176.07 1642.08 1251.8 1605.28 1323.28C1605.11 1323.61 1604.79 1323.85 1603.81 1324.91C1590.65 1311.49 1577.63 1298.07 1564.44 1284.84C1529.58 1249.86 1494.7 1214.89 1459.66 1180.09C1454.62 1175.08 1452.14 1170.04 1452.16 1162.56C1452.47 1068.68 1452.39 974.788 1452.44 880.906C1452.44 878.298 1451.94 875.588 1453.53 871.812ZM373.75 953.031C376.982 953.151 378.063 955.504 379.562 957C449.992 1027.35 520.365 1097.74 590.75 1168.12C595.11 1179.12 604.568 1177.45 613.5 1177.44C642.76 1177.39 672.014 1177.48 701.906 1177.5C801.266 1177.51 899.991 1177.54 998.719 1177.44C1003.47 1177.43 1006.97 1178.7 1010.38 1182.12C1035.98 1208 1061.76 1233.71 1087.5 1259.47C1088.64 1260.6 1089.72 1261.77 1091.78 1263.94C1087 1263.94 1083.54 1263.94 1080.06 1263.94C861.36 1263.94 642.644 1263.9 423.938 1264.09C417.581 1264.09 414.777 1262.15 412.594 1256.34C379.386 1167.99 365.566 1076.74 371.25 982.531C371.842 972.725 372.888 962.942 373.75 953.031ZM1438.88 1177.34C1443.98 1177.33 1447.69 1178.94 1451.09 1182.38C1459.23 1190.58 1467.44 1198.73 1475.94 1207.19C1516.11 1247.32 1555.93 1287.21 1595.91 1326.91C1599.65 1330.63 1600.26 1333.32 1597.59 1338.12C1549.37 1425.11 1485.12 1497.8 1404.31 1555.84C1400.63 1558.49 1398.73 1558.37 1395.53 1555.16C1299.34 1458.76 1203.03 1362.46 1106.75 1266.16C1079.07 1238.47 1051.36 1210.83 1023.62 1183.19C1022.16 1181.73 1020.36 1180.62 1018.69 1179.34C1020.9 1176.7 1022.93 1177.59 1024.62 1177.59C1162.7 1177.51 1300.79 1177.51 1438.88 1177.34ZM1091.91 1271.59C1093.06 1271.56 1094.11 1271.82 1094.72 1273.03C1095.71 1275 1093.39 1276.79 1092.38 1278.56C1056.07 1341.5 1019.76 1404.43 983.438 1467.38C947.643 1529.41 911.807 1591.4 876.188 1653.53C873.282 1658.59 870.549 1659.75 864.812 1658.28C796.392 1640.76 732.335 1613.28 672.312 1575.19C558.605 1501.68 475.329 1403.01 421.906 1279.12C418.813 1271.94 418.872 1271.91 426.719 1271.91C647.289 1271.91 867.869 1271.91 1088.44 1271.97C1089.5 1271.97 1090.75 1271.63 1091.91 1271.59ZM1103.91 1275.56C1122.66 1294.41 1140.97 1312.8 1159.59 1331.53C1235.65 1407.58 1311.36 1483.35 1387.22 1558.97C1391.44 1563.18 1391.55 1564.91 1386.38 1568.31C1293.69 1629.27 1192.28 1665.09 1081.78 1675.19C1016.31 1681.18 951.483 1676.86 887.188 1663.41C881.391 1662.2 881.277 1660.74 884.031 1656C918.801 1596.07 953.383 1536.02 988.031 1476.03C1024.36 1413.12 1060.71 1350.24 1097.06 1287.34C1099.15 1283.73 1101.25 1280.12 1103.91 1275.56Z" fill="#222222" fill-rule="nonzero" opacity="1" stroke="none"/>
<path d="M846.188 893.031C841.76 893.014 837.321 893.051 832.875 893.188C788.368 894.557 745.136 902.475 703.625 919.188C695.818 922.331 692.591 927.556 691.688 935.188C690.045 949.051 693.483 961.624 702.156 972.406C705.46 976.513 706.617 980.608 706.781 985.562C707.842 1017.66 717.1 1047.31 734.562 1074.16C774.513 1135.58 835.955 1155.6 905 1134.97C960.77 1118.3 1000.64 1062.83 1002.38 1004.25C1002.9 986.707 1009.44 971.934 1025.19 962.375C1030.05 959.421 1034.51 959.637 1039.38 962.469C1050.22 968.782 1056.39 978.413 1060.06 990.594C1061.38 995.8 1062.08 1000.56 1062.12 1005.44C1062.27 1022.93 1065.64 1039.88 1073.31 1055.53C1100.53 1111 1143.88 1141.27 1207.09 1142.22C1251.35 1142.89 1286.86 1126 1315.38 1093.38C1342.08 1062.84 1355.58 1026.72 1357.66 986.281C1357.93 980.96 1358.96 976.431 1362.59 971.906C1370.77 961.701 1374.16 949.626 1372.91 936.438C1372.13 928.106 1368.83 922.363 1360.22 918.969C1311.32 899.678 1260.54 891.651 1208.22 893.281C1180.15 894.155 1152.53 898.275 1126.03 908.312C1109.36 914.627 1094.99 925.094 1079.56 933.656C1076.48 935.366 1074.22 935.309 1070.88 934.156C1045.38 925.362 1019.69 925.397 994.156 933.938C990.427 935.184 987.857 935.365 984.312 933.375C968.746 924.636 954.206 914 937.219 907.875C907.677 897.223 877.179 893.153 846.188 893.031ZM1210.56 909.75C1236.75 910.133 1262.83 917.441 1288.41 931.656C1331.36 955.532 1344.38 1000.18 1324.38 1045.16C1296.81 1107.14 1228.75 1137.57 1164.28 1116.62C1159.1 1114.94 1154.17 1112.46 1148.72 1110.12C1106.02 1086.29 1083.81 1050.31 1084.66 1001.84C1085.24 968.579 1103.29 944.279 1132 929.406C1158.08 915.9 1184.37 909.367 1210.56 909.75ZM858.75 910C879.572 910.353 900.521 914.964 921.438 923.906C973.2 946.035 992.692 992.627 972.719 1045.5C956.349 1088.83 924.13 1114.02 878.5 1122C877.056 1122.25 875.57 1122.23 873.531 1122.38C822.298 1129.32 769.214 1100.99 744.125 1053.44C733.125 1032.59 727.815 1010.61 733.031 987.062C738.958 960.297 755.74 941.597 779.375 929.469C805.411 916.109 831.979 909.546 858.75 910Z" fill="#222222" fill-rule="nonzero" opacity="1" stroke="none"/>
</g>
<g opacity="0">
<path d="M1039.12 357C1006.62 356.419 973.549 358.114 939.875 362.031C862.63 371.016 789.381 394.296 720.188 429.469C636.722 471.898 565.354 529.683 506.438 602.625C453.504 668.161 413.878 740.9 388.344 821.219C360.093 910.086 350.922 1000.93 360.531 1094.25C366.698 1152.03 379.7 1207.63 400.438 1261.28C451.182 1392.56 534.579 1498.21 651.156 1577.12C739.633 1637.02 837.222 1673.13 943.375 1686.12C1002.44 1693.36 1061.38 1692.7 1120.19 1684.16C1204 1671.98 1282.78 1644.91 1356.12 1602.53C1469.27 1537.14 1556.23 1446.41 1616.53 1330.5C1660.15 1246.65 1684.46 1157.32 1689.97 1062.91C1695.59 966.502 1681.17 873.158 1646.25 783.188C1600.67 665.758 1528.01 568.064 1427.28 492.531C1309.71 404.37 1179.97 359.516 1039.12 357ZM1006.44 370.031C1163.88 367.651 1304.56 413.967 1428.53 510.219C1470.62 542.898 1507.73 580.694 1540.38 622.812C1541.61 624.388 1543.38 625.684 1543.5 628.031C1541.55 629.506 1539.36 628.843 1537.38 628.844C1398.23 628.89 1259.11 628.903 1119.97 628.906C1030.53 628.907 941.095 628.826 851.656 629.031C845.563 629.045 844.136 627.564 844.156 621.469C844.403 548.222 844.392 474.966 844.188 401.719C844.172 396.429 845.834 394.551 850.75 393.219C901.551 379.444 953.252 371.885 1006.44 370.031ZM833.094 398.594C836.39 397.953 836.374 399.462 836.375 405.531C836.377 553.699 836.345 701.864 836.5 850.031C836.506 855.65 835.28 857.271 829.406 857.25C755.533 856.995 681.655 857.018 607.781 857.125C603.657 857.131 601.539 855.913 599.469 852.312C562.385 787.798 525.143 723.342 487.812 658.969C485.626 655.2 485.27 652.527 488.094 648.906C497.148 637.295 505.857 625.417 514.969 613.281C558.441 560.376 608.107 514.903 665.062 477.656C716.005 444.342 770.273 417.852 828.562 399.875C830.515 399.273 831.995 398.807 833.094 398.594ZM1123.88 636.844C1125.06 636.903 1126.37 637.219 1127.47 637.219C1265.75 637.159 1404.03 637.211 1542.31 637C1548.96 636.99 1552.95 638.977 1556.78 644.406C1616.05 728.584 1654 821.435 1670.19 923.062C1678.3 973.967 1679.99 1025.19 1675.78 1076.59C1675.65 1078.14 1676.47 1080.44 1674.44 1081C1672.64 1081.5 1671.66 1079.44 1670.5 1078.28C1645.25 1053.06 1620.02 1027.82 1594.78 1002.59C1550.11 957.931 1505.14 913.538 1461 868.344C1452.67 859.807 1444.57 856.877 1433.09 856.969C1374.79 857.436 1316.46 856.92 1258.16 857.375C1249.22 857.445 1243.41 855.485 1240.28 846.5C1201.16 778.775 1162.26 711.431 1123.41 644.094C1122.3 642.169 1119.96 640.005 1121.06 638.031C1121.65 636.978 1122.69 636.785 1123.88 636.844ZM967.906 636.938C974.776 636.858 978.062 639.519 981.094 644.875C992.579 665.156 1004.35 685.309 1016 705.5C1044.43 754.799 1072.86 804.072 1101.28 853.375C1101.78 854.246 1102.24 855.165 1103.31 857.125C1054.21 857.125 1005.96 857.125 957.062 857.125C921.07 857.127 885.735 857.02 850.375 857.25C845.382 857.283 844.208 855.902 844.219 851C844.38 781.967 844.368 712.939 844.156 643.906C844.139 638.342 845.551 636.993 851.094 637.031C890.031 637.293 928.972 637.387 967.906 636.938ZM1102.72 637C1108.32 636.955 1111.28 638.696 1114.03 643.5C1142.45 693.074 1171.12 742.518 1199.97 792.375C1212.34 813.831 1224.45 834.89 1236.53 855.906C1234.84 857.805 1233.05 857.061 1231.53 857.062C1193.87 857.108 1156.22 857.014 1118.56 857.219C1114.32 857.242 1112.25 855.718 1110.28 852.281C1071.57 784.954 1032.77 717.686 993.969 650.406C991.604 646.306 989.219 642.23 986.281 637.156C989.72 637.156 991.96 637.156 994.188 637.156C1030.37 637.157 1066.54 637.287 1102.72 637ZM480 661.531C486.893 673.441 493.416 684.67 499.906 695.906C530.293 748.515 560.641 801.134 591.125 853.688C593.524 857.824 594.724 861.861 594.719 866.688C594.616 962.674 594.651 1058.68 594.656 1154.66C594.657 1155.86 594.656 1157.03 594.656 1160C587.984 1153.19 582.506 1147.51 576.938 1141.94C511.766 1076.75 446.642 1011.53 381.281 946.531C376.704 941.979 375.393 937.759 376.312 931.656C386.253 865.677 404.972 802.374 433.844 742.156C440.942 727.352 448.452 712.756 456.938 698.156C464.201 685.617 471.264 673.516 480 661.531ZM1436.62 866.375C1442.69 866.369 1443.82 868.284 1443.81 873.844C1443.67 969.625 1443.65 1065.41 1443.88 1161.19C1443.9 1167.3 1441.94 1168.39 1436.41 1168.38C1290.74 1168.22 1145.05 1168.24 998.75 1168.22C869.077 1168.25 740.041 1168.24 611 1168.38C605.996 1168.39 603.612 1167.91 603.625 1161.78C603.821 1066.42 603.733 971.047 603.719 875.688C603.718 866.898 603.727 866.879 612.5 866.875C887.208 866.752 1161.91 866.652 1436.62 866.375ZM1453.53 871.812C1474.42 892.86 1494.73 913.318 1515.38 934.062C1537.52 956.166 1559.37 977.979 1581.16 999.812C1611.24 1029.96 1641.31 1060.13 1671.38 1090.28C1673.02 1091.94 1674.38 1093.46 1674.06 1096.25C1664.8 1176.07 1642.08 1251.8 1605.28 1323.28C1605.11 1323.61 1604.79 1323.85 1603.81 1324.91C1590.65 1311.49 1577.63 1298.07 1564.44 1284.84C1529.58 1249.86 1494.7 1214.89 1459.66 1180.09C1454.62 1175.08 1452.14 1170.04 1452.16 1162.56C1452.47 1068.68 1452.39 974.788 1452.44 880.906C1452.44 878.298 1451.94 875.588 1453.53 871.812ZM373.75 953.031C376.982 953.151 378.063 955.504 379.562 957C449.992 1027.35 520.365 1097.74 590.75 1168.12C595.11 1179.12 604.568 1177.45 613.5 1177.44C642.76 1177.39 672.014 1177.48 701.906 1177.5C801.266 1177.51 899.991 1177.54 998.719 1177.44C1003.47 1177.43 1006.97 1178.7 1010.38 1182.12C1035.98 1208 1061.76 1233.71 1087.5 1259.47C1088.64 1260.6 1089.72 1261.77 1091.78 1263.94C1087 1263.94 1083.54 1263.94 1080.06 1263.94C861.36 1263.94 642.644 1263.9 423.938 1264.09C417.581 1264.09 414.777 1262.15 412.594 1256.34C379.386 1167.99 365.566 1076.74 371.25 982.531C371.842 972.725 372.888 962.942 373.75 953.031ZM1438.88 1177.34C1443.98 1177.33 1447.69 1178.94 1451.09 1182.38C1459.23 1190.58 1467.44 1198.73 1475.94 1207.19C1516.11 1247.32 1555.93 1287.21 1595.91 1326.91C1599.65 1330.63 1600.26 1333.32 1597.59 1338.12C1549.37 1425.11 1485.12 1497.8 1404.31 1555.84C1400.63 1558.49 1398.73 1558.37 1395.53 1555.16C1299.34 1458.76 1203.03 1362.46 1106.75 1266.16C1079.07 1238.47 1051.36 1210.83 1023.62 1183.19C1022.16 1181.73 1020.36 1180.62 1018.69 1179.34C1020.9 1176.7 1022.93 1177.59 1024.62 1177.59C1162.7 1177.51 1300.79 1177.51 1438.88 1177.34ZM1091.91 1271.59C1093.06 1271.56 1094.11 1271.82 1094.72 1273.03C1095.71 1275 1093.39 1276.79 1092.38 1278.56C1056.07 1341.5 1019.76 1404.43 983.438 1467.38C947.643 1529.41 911.807 1591.4 876.188 1653.53C873.282 1658.59 870.549 1659.75 864.812 1658.28C796.392 1640.76 732.335 1613.28 672.312 1575.19C558.605 1501.68 475.329 1403.01 421.906 1279.12C418.813 1271.94 418.872 1271.91 426.719 1271.91C647.289 1271.91 867.869 1271.91 1088.44 1271.97C1089.5 1271.97 1090.75 1271.63 1091.91 1271.59ZM1103.91 1275.56C1122.66 1294.41 1140.97 1312.8 1159.59 1331.53C1235.65 1407.58 1311.36 1483.35 1387.22 1558.97C1391.44 1563.18 1391.55 1564.91 1386.38 1568.31C1293.69 1629.27 1192.28 1665.09 1081.78 1675.19C1016.31 1681.18 951.483 1676.86 887.188 1663.41C881.391 1662.2 881.277 1660.74 884.031 1656C918.801 1596.07 953.383 1536.02 988.031 1476.03C1024.36 1413.12 1060.71 1350.24 1097.06 1287.34C1099.15 1283.73 1101.25 1280.12 1103.91 1275.56Z" fill="#b38df0" fill-rule="nonzero" opacity="1" stroke="#b08bec" stroke-linecap="butt" stroke-linejoin="round" stroke-width="5.27937"/>
<path d="M846.188 893.031C841.76 893.014 837.321 893.051 832.875 893.188C788.368 894.557 745.136 902.475 703.625 919.188C695.818 922.331 692.591 927.556 691.688 935.188C690.045 949.051 693.483 961.624 702.156 972.406C705.46 976.513 706.617 980.608 706.781 985.562C707.842 1017.66 717.1 1047.31 734.562 1074.16C774.513 1135.58 835.955 1155.6 905 1134.97C960.77 1118.3 1000.64 1062.83 1002.38 1004.25C1002.9 986.707 1009.44 971.934 1025.19 962.375C1030.05 959.421 1034.51 959.637 1039.38 962.469C1050.22 968.782 1056.39 978.413 1060.06 990.594C1061.38 995.8 1062.08 1000.56 1062.12 1005.44C1062.27 1022.93 1065.64 1039.88 1073.31 1055.53C1100.53 1111 1143.88 1141.27 1207.09 1142.22C1251.35 1142.89 1286.86 1126 1315.38 1093.38C1342.08 1062.84 1355.58 1026.72 1357.66 986.281C1357.93 980.96 1358.96 976.431 1362.59 971.906C1370.77 961.701 1374.16 949.626 1372.91 936.438C1372.13 928.106 1368.83 922.363 1360.22 918.969C1311.32 899.678 1260.54 891.651 1208.22 893.281C1180.15 894.155 1152.53 898.275 1126.03 908.312C1109.36 914.627 1094.99 925.094 1079.56 933.656C1076.48 935.366 1074.22 935.309 1070.88 934.156C1045.38 925.362 1019.69 925.397 994.156 933.938C990.427 935.184 987.857 935.365 984.312 933.375C968.746 924.636 954.206 914 937.219 907.875C907.677 897.223 877.179 893.153 846.188 893.031ZM1210.56 909.75C1236.75 910.133 1262.83 917.441 1288.41 931.656C1331.36 955.532 1344.38 1000.18 1324.38 1045.16C1296.81 1107.14 1228.75 1137.57 1164.28 1116.62C1159.1 1114.94 1154.17 1112.46 1148.72 1110.12C1106.02 1086.29 1083.81 1050.31 1084.66 1001.84C1085.24 968.579 1103.29 944.279 1132 929.406C1158.08 915.9 1184.37 909.367 1210.56 909.75ZM858.75 910C879.572 910.353 900.521 914.964 921.438 923.906C973.2 946.035 992.692 992.627 972.719 1045.5C956.349 1088.83 924.13 1114.02 878.5 1122C877.056 1122.25 875.57 1122.23 873.531 1122.38C822.298 1129.32 769.214 1100.99 744.125 1053.44C733.125 1032.59 727.815 1010.61 733.031 987.062C738.958 960.297 755.74 941.597 779.375 929.469C805.411 916.109 831.979 909.546 858.75 910Z" fill="#b38df0" fill-rule="nonzero" opacity="1" stroke="#b08bec" stroke-linecap="butt" stroke-linejoin="round" stroke-width="5.27937"/>
</g>
<g opacity="1">
<path d="M1039.12 357C1006.62 356.419 973.549 358.114 939.875 362.031C862.63 371.016 789.381 394.296 720.188 429.469C636.722 471.898 565.354 529.683 506.438 602.625C453.504 668.161 413.878 740.9 388.344 821.219C360.093 910.086 350.922 1000.93 360.531 1094.25C366.698 1152.03 379.7 1207.63 400.438 1261.28C451.182 1392.56 534.579 1498.21 651.156 1577.12C739.633 1637.02 837.222 1673.13 943.375 1686.12C1002.44 1693.36 1061.38 1692.7 1120.19 1684.16C1204 1671.98 1282.78 1644.91 1356.12 1602.53C1469.27 1537.14 1556.23 1446.41 1616.53 1330.5C1660.15 1246.65 1684.46 1157.32 1689.97 1062.91C1695.59 966.502 1681.17 873.158 1646.25 783.188C1600.67 665.758 1528.01 568.064 1427.28 492.531C1309.71 404.37 1179.97 359.516 1039.12 357ZM1006.44 370.031C1163.88 367.651 1304.56 413.967 1428.53 510.219C1470.62 542.898 1507.73 580.694 1540.38 622.812C1541.61 624.388 1543.38 625.684 1543.5 628.031C1541.55 629.506 1539.36 628.843 1537.38 628.844C1398.23 628.89 1259.11 628.903 1119.97 628.906C1030.53 628.907 941.095 628.826 851.656 629.031C845.563 629.045 844.136 627.564 844.156 621.469C844.403 548.222 844.392 474.966 844.188 401.719C844.172 396.429 845.834 394.551 850.75 393.219C901.551 379.444 953.252 371.885 1006.44 370.031ZM833.094 398.594C836.39 397.953 836.374 399.462 836.375 405.531C836.377 553.699 836.345 701.864 836.5 850.031C836.506 855.65 835.28 857.271 829.406 857.25C755.533 856.995 681.655 857.018 607.781 857.125C603.657 857.131 601.539 855.913 599.469 852.312C562.385 787.798 525.143 723.342 487.812 658.969C485.626 655.2 485.27 652.527 488.094 648.906C497.148 637.295 505.857 625.417 514.969 613.281C558.441 560.376 608.107 514.903 665.062 477.656C716.005 444.342 770.273 417.852 828.562 399.875C830.515 399.273 831.995 398.807 833.094 398.594ZM1123.88 636.844C1125.06 636.903 1126.37 637.219 1127.47 637.219C1265.75 637.159 1404.03 637.211 1542.31 637C1548.96 636.99 1552.95 638.977 1556.78 644.406C1616.05 728.584 1654 821.435 1670.19 923.062C1678.3 973.967 1679.99 1025.19 1675.78 1076.59C1675.65 1078.14 1676.47 1080.44 1674.44 1081C1672.64 1081.5 1671.66 1079.44 1670.5 1078.28C1645.25 1053.06 1620.02 1027.82 1594.78 1002.59C1550.11 957.931 1505.14 913.538 1461 868.344C1452.67 859.807 1444.57 856.877 1433.09 856.969C1374.79 857.436 1316.46 856.92 1258.16 857.375C1249.22 857.445 1243.41 855.485 1240.28 846.5C1201.16 778.775 1162.26 711.431 1123.41 644.094C1122.3 642.169 1119.96 640.005 1121.06 638.031C1121.65 636.978 1122.69 636.785 1123.88 636.844ZM967.906 636.938C974.776 636.858 978.062 639.519 981.094 644.875C992.579 665.156 1004.35 685.309 1016 705.5C1044.43 754.799 1072.86 804.072 1101.28 853.375C1101.78 854.246 1102.24 855.165 1103.31 857.125C1054.21 857.125 1005.96 857.125 957.062 857.125C921.07 857.127 885.735 857.02 850.375 857.25C845.382 857.283 844.208 855.902 844.219 851C844.38 781.967 844.368 712.939 844.156 643.906C844.139 638.342 845.551 636.993 851.094 637.031C890.031 637.293 928.972 637.387 967.906 636.938ZM1102.72 637C1108.32 636.955 1111.28 638.696 1114.03 643.5C1142.45 693.074 1171.12 742.518 1199.97 792.375C1212.34 813.831 1224.45 834.89 1236.53 855.906C1234.84 857.805 1233.05 857.061 1231.53 857.062C1193.87 857.108 1156.22 857.014 1118.56 857.219C1114.32 857.242 1112.25 855.718 1110.28 852.281C1071.57 784.954 1032.77 717.686 993.969 650.406C991.604 646.306 989.219 642.23 986.281 637.156C989.72 637.156 991.96 637.156 994.188 637.156C1030.37 637.157 1066.54 637.287 1102.72 637ZM480 661.531C486.893 673.441 493.416 684.67 499.906 695.906C530.293 748.515 560.641 801.134 591.125 853.688C593.524 857.824 594.724 861.861 594.719 866.688C594.616 962.674 594.651 1058.68 594.656 1154.66C594.657 1155.86 594.656 1157.03 594.656 1160C587.984 1153.19 582.506 1147.51 576.938 1141.94C511.766 1076.75 446.642 1011.53 381.281 946.531C376.704 941.979 375.393 937.759 376.312 931.656C386.253 865.677 404.972 802.374 433.844 742.156C440.942 727.352 448.452 712.756 456.938 698.156C464.201 685.617 471.264 673.516 480 661.531ZM1436.62 866.375C1442.69 866.369 1443.82 868.284 1443.81 873.844C1443.67 969.625 1443.65 1065.41 1443.88 1161.19C1443.9 1167.3 1441.94 1168.39 1436.41 1168.38C1290.74 1168.22 1145.05 1168.24 998.75 1168.22C869.077 1168.25 740.041 1168.24 611 1168.38C605.996 1168.39 603.612 1167.91 603.625 1161.78C603.821 1066.42 603.733 971.047 603.719 875.688C603.718 866.898 603.727 866.879 612.5 866.875C887.208 866.752 1161.91 866.652 1436.62 866.375ZM1453.53 871.812C1474.42 892.86 1494.73 913.318 1515.38 934.062C1537.52 956.166 1559.37 977.979 1581.16 999.812C1611.24 1029.96 1641.31 1060.13 1671.38 1090.28C1673.02 1091.94 1674.38 1093.46 1674.06 1096.25C1664.8 1176.07 1642.08 1251.8 1605.28 1323.28C1605.11 1323.61 1604.79 1323.85 1603.81 1324.91C1590.65 1311.49 1577.63 1298.07 1564.44 1284.84C1529.58 1249.86 1494.7 1214.89 1459.66 1180.09C1454.62 1175.08 1452.14 1170.04 1452.16 1162.56C1452.47 1068.68 1452.39 974.788 1452.44 880.906C1452.44 878.298 1451.94 875.588 1453.53 871.812ZM373.75 953.031C376.982 953.151 378.063 955.504 379.562 957C449.992 1027.35 520.365 1097.74 590.75 1168.12C595.11 1179.12 604.568 1177.45 613.5 1177.44C642.76 1177.39 672.014 1177.48 701.906 1177.5C801.266 1177.51 899.991 1177.54 998.719 1177.44C1003.47 1177.43 1006.97 1178.7 1010.38 1182.12C1035.98 1208 1061.76 1233.71 1087.5 1259.47C1088.64 1260.6 1089.72 1261.77 1091.78 1263.94C1087 1263.94 1083.54 1263.94 1080.06 1263.94C861.36 1263.94 642.644 1263.9 423.938 1264.09C417.581 1264.09 414.777 1262.15 412.594 1256.34C379.386 1167.99 365.566 1076.74 371.25 982.531C371.842 972.725 372.888 962.942 373.75 953.031ZM1438.88 1177.34C1443.98 1177.33 1447.69 1178.94 1451.09 1182.38C1459.23 1190.58 1467.44 1198.73 1475.94 1207.19C1516.11 1247.32 1555.93 1287.21 1595.91 1326.91C1599.65 1330.63 1600.26 1333.32 1597.59 1338.12C1549.37 1425.11 1485.12 1497.8 1404.31 1555.84C1400.63 1558.49 1398.73 1558.37 1395.53 1555.16C1299.34 1458.76 1203.03 1362.46 1106.75 1266.16C1079.07 1238.47 1051.36 1210.83 1023.62 1183.19C1022.16 1181.73 1020.36 1180.62 1018.69 1179.34C1020.9 1176.7 1022.93 1177.59 1024.62 1177.59C1162.7 1177.51 1300.79 1177.51 1438.88 1177.34ZM1091.91 1271.59C1093.06 1271.56 1094.11 1271.82 1094.72 1273.03C1095.71 1275 1093.39 1276.79 1092.38 1278.56C1056.07 1341.5 1019.76 1404.43 983.438 1467.38C947.643 1529.41 911.807 1591.4 876.188 1653.53C873.282 1658.59 870.549 1659.75 864.812 1658.28C796.392 1640.76 732.335 1613.28 672.312 1575.19C558.605 1501.68 475.329 1403.01 421.906 1279.12C418.813 1271.94 418.872 1271.91 426.719 1271.91C647.289 1271.91 867.869 1271.91 1088.44 1271.97C1089.5 1271.97 1090.75 1271.63 1091.91 1271.59ZM1103.91 1275.56C1122.66 1294.41 1140.97 1312.8 1159.59 1331.53C1235.65 1407.58 1311.36 1483.35 1387.22 1558.97C1391.44 1563.18 1391.55 1564.91 1386.38 1568.31C1293.69 1629.27 1192.28 1665.09 1081.78 1675.19C1016.31 1681.18 951.483 1676.86 887.188 1663.41C881.391 1662.2 881.277 1660.74 884.031 1656C918.801 1596.07 953.383 1536.02 988.031 1476.03C1024.36 1413.12 1060.71 1350.24 1097.06 1287.34C1099.15 1283.73 1101.25 1280.12 1103.91 1275.56Z" fill="#b38df0" fill-rule="nonzero" opacity="1" stroke="#b08bec" stroke-linecap="butt" stroke-linejoin="round" stroke-width="7.80131"/>
<path d="M853.747 909.709C849.694 909.693 845.632 909.727 841.563 909.852C800.833 911.105 761.269 918.352 723.28 933.646C716.135 936.523 713.182 941.304 712.356 948.289C710.852 960.976 713.998 972.482 721.936 982.349C724.959 986.108 726.018 989.855 726.168 994.389C727.139 1023.76 735.612 1050.9 751.592 1075.47C788.153 1131.68 844.382 1150 907.569 1131.12C958.607 1115.86 995.094 1065.1 996.686 1011.49C997.162 995.437 1003.15 981.917 1017.56 973.169C1022.01 970.466 1026.09 970.663 1030.55 973.255C1040.47 979.033 1046.11 987.846 1049.47 998.994C1050.68 1003.76 1051.32 1008.11 1051.36 1012.58C1051.49 1028.59 1054.58 1044.1 1061.6 1058.42C1086.51 1109.18 1126.18 1136.89 1184.03 1137.75C1224.53 1138.37 1257.03 1122.91 1283.13 1093.06C1307.56 1065.11 1319.92 1032.05 1321.82 995.047C1322.07 990.177 1323.01 986.032 1326.33 981.891C1333.82 972.552 1336.92 961.502 1335.78 949.433C1335.06 941.808 1332.04 936.552 1324.16 933.446C1279.41 915.792 1232.94 908.446 1185.06 909.938C1159.37 910.737 1134.1 914.508 1109.84 923.693C1094.59 929.472 1081.44 939.051 1067.32 946.887C1064.5 948.452 1062.43 948.4 1059.37 947.344C1036.04 939.297 1012.53 939.329 989.16 947.145C985.747 948.285 983.395 948.451 980.151 946.63C965.906 938.632 952.6 928.899 937.054 923.293C910.019 913.545 882.108 909.82 853.747 909.709ZM1187.2 925.009C1211.17 925.36 1235.04 932.048 1258.45 945.057C1297.75 966.907 1309.67 1007.77 1291.37 1048.93C1266.13 1105.65 1203.85 1133.5 1144.85 1114.33C1140.11 1112.79 1135.6 1110.52 1130.61 1108.38C1091.53 1086.57 1071.21 1053.64 1071.98 1009.29C1072.52 978.847 1089.03 956.609 1115.31 942.997C1139.18 930.637 1163.23 924.659 1187.2 925.009ZM865.243 925.238C884.298 925.561 903.47 929.781 922.612 937.964C969.982 958.216 987.82 1000.85 969.542 1049.24C954.561 1088.89 925.076 1111.95 883.317 1119.25C881.996 1119.48 880.636 1119.46 878.77 1119.6C831.884 1125.95 783.304 1100.02 760.344 1056.51C750.277 1037.43 745.417 1017.31 750.191 995.761C755.615 971.267 770.973 954.154 792.603 943.055C816.43 930.829 840.743 924.823 865.243 925.238Z" fill="#b38df0" fill-rule="nonzero" opacity="1" stroke="#b08bec" stroke-linecap="butt" stroke-linejoin="round" stroke-width="5.27937"/>
</g>
</g>
</svg>
